<?xml version="1.0" encoding="utf-8"?>
<?xml-stylesheet type="text/xsl" href="rss1.xsl"?>
<rss version="2.0" xmlns:atom="http://www.w3.org/2005/Atom" xmlns:content="http://purl.org/rss/1.0/modules/content/" xmlns:dc="http://purl.org/dc/elements/1.1/" xmlns:media="http://search.yahoo.com/mrss/">
<channel>
 <title>Getty</title>
 <link>http://www.gettyimg.com/</link>
 <atom:link href="http://www.gettyimg.com/" rel="self" type="application/rss+xml" />

 
                <item>
                <title><![CDATA[【Cinema Center】MOVIE - Close 2022 1080p BluRay HEVC 10bit ACC 5.1]]></title>
                <link><![CDATA[https://sharemania.us/threads/close-2022-1080p-bluray-hevc-10bit-acc-5-1.219822/]]></link>
                <description><![CDATA[<article>
<blockquote class="messageText SelectQuoteContainer ugc baseHtml">
<img src="https://images2.imgbox.com/da/cf/uHvpkh0K_o.png" class="bbCodeImage LbImage" alt="[​IMG]" data-url="https://images2.imgbox.com/da/cf/uHvpkh0K_o.png" style=""><br>
<img src="https://images2.imgbox.com/86/82/8AX8ycqF_o.jpg" class="bbCodeImage LbImage" alt="[​IMG]" data-url="https://images2.imgbox.com/86/82/8AX8ycqF_o.jpg" style=""><br>
<div class="ToggleTriggerAnchor bbCodeSpoilerContainer">
<button type="button" class="button bbCodeSpoilerButton ToggleTrigger Tooltip JsOnly" data-target="> .SpoilerTarget"><span>Spoiler: <span class="SpoilerTitle">MediaInfo</span></span></button>
<div class="SpoilerTarget bbCodeSpoilerText">General<br>
Complete name : Close (2022) (1080p BluRay x265 10bit Tigole).mkv<br>
Format : Matroska<br>
Format version : Version 4<br>
File size : 5.39 GiB<br>
Duration : 1 h 44 min<br>
Overall bit rate : 7 416 kb/s<br>
Frame rate : 24.000 FPS<br>
Encoded date : 2023-03-09 02:24:11 UTC<br>
Writing application : mkvmerge v65.0.0 ('Too Much') 64-bit<br>
Writing library : libebml v1.4.2 + libmatroska v1.6.4<br>
<br>
Video<br>
ID : 1<br>
Format : HEVC<br>
Format/Info : High Efficiency Video Coding<br>
Format profile : Main 10<br>
Format level : 4<br>
Format tier : Main<br>
Codec ID : V_MPEGH/ISO/HEVC<br>
Duration : 1 h 44 min<br>
Bit rate : 7 002 kb/s<br>
Width : 1 800 pixels<br>
Height : 1 080 pixels<br>
Display aspect ratio : 5:3<br>
Frame rate mode : Constant<br>
Frame rate : 24.000 FPS<br>
Color space : YUV<br>
Chroma subsampling : 4:2:0<br>
Bit depth : 10 bits<br>
Bits/(Pixel*Frame) : 0.150<br>
Stream size : 5.09 GiB (94%)<br>
Writing library : x265M - 3.4+35-772bb4c84:[Windows][GCC 10.2.0][64 bit] 10bit<br>
Encoding settings : cpuid=1111039 / frame-threads=4 / numa-pools=16 / wpp / no-pmode / no-pme / no-psnr / no-ssim / log-level=2 / input-csp=1 / input-res=1800x1080 / interlace=0 / total-frames=149760 / level-idc=0 / high-tier=1 / uhd-bd=0 / ref=4 / no-allow-non-conformance / no-repeat-headers / annexb / no-aud / no-hrd / info / hash=0 / no-temporal-layers / open-gop / min-keyint=24 / keyint=250 / gop-lookahead=0 / bframes=4 / b-adapt=2 / b-pyramid / bframe-bias=0 / rc-lookahead=25 / lookahead-slices=4 / scenecut=40 / hist-scenecut=0 / radl=0 / no-splice / no-intra-refresh / ctu=64 / min-cu-size=8 / rect / no-amp / max-tu-size=32 / tu-inter-depth=1 / tu-intra-depth=1 / limit-tu=0 / rdoq-level=2 / dynamic-rd=0.00 / no-ssim-rd / signhide / no-tskip / nr-intra=0 / nr-inter=0 / no-constrained-intra / strong-intra-smoothing / max-merge=3 / limit-refs=3 / limit-modes / me=3 / subme=3 / merange=57 / temporal-mvp / no-frame-dup / no-hme / weightp / no-weightb / no-analyze-src-pics / deblock=0:0 / no-sao / no-sao-non-deblock / rd=4 / selective-sao=0 / no-early-skip / rskip / no-fast-intra / no-tskip-fast / no-cu-lossless / no-b-intra / no-splitrd-skip / rdpenalty=0 / psy-rd=2.00 / psy-rdoq=1.00 / no-rd-refine / no-lossless / cbqpoffs=0 / crqpoffs=0 / rc=abr / bitrate=7000 / qcomp=0.60 / qpstep=4 / stats-write=0 / stats-read=2 / cplxblur=20.0 / qblur=0.5 / ipratio=1.40 / pbratio=1.30 / aq-mode=3 / aq-strength=1.00 / cutree / zone-count=0 / no-strict-cbr / qg-size=32 / no-rc-grain / qpmax=69 / qpmin=0 / no-const-vbv / sar=0 / overscan=0 / videoformat=5 / range=0 / colorprim=2 / transfer=2 / colormatrix=2 / chromaloc=0 / display-window=0 / cll=0,0 / min-luma=0 / max-luma=1023 / log2-max-poc-lsb=8 / vui-timing-info / vui-hrd-info / slices=1 / no-opt-qp-pps / no-opt-ref-list-length-pps / multi-pass-opt-rps / scenecut-bias=0.05 / hist-threshold=0.03 / no-opt-cu-delta-qp / aq-motion / no-hdr10 / no-hdr10-opt / no-dhdr10-opt / no-idr-recovery-sei / analysis-reuse-level=0 / analysis-save-reuse-level=0 / analysis-load-reuse-level=0 / scale-factor=0 / refine-intra=0 / refine-inter=0 / refine-mv=1 / refine-ctu-distortion=0 / no-limit-sao / ctu-info=0 / no-lowpass-dct / refine-analysis-type=0 / copy-pic=1 / max-ausize-factor=1.0 / no-dynamic-refine / no-single-sei / no-hevc-aq / no-svt / no-field / qp-adaptation-range=1.00 / scenecut-aware-qp=0conformance-window-offsets / right=0 / bottom=0 / decoder-max-rate=0 / no-vbv-live-multi-pass<br>
Default : Yes<br>
Forced : No<br>
<br>
Audio<br>
ID : 2<br>
Format : AAC LC<br>
Format/Info : Advanced Audio Codec<br>
Codec ID : A_AAC-2<br>
Duration : 1 h 44 min<br>
Bit rate : 409 kb/s<br>
Channel(s) : 6 channels<br>
Channel layout : C L R Ls Rs LFE<br>
Sampling rate : 48.0 kHz<br>
Frame rate : 46.875 FPS (1024 SPF)<br>
Compression mode : Lossy<br>
Delay relative to video : 20 ms<br>
Stream size : 304 MiB (6%)<br>
Language : French<br>
Default : Yes<br>
Forced : No<br>
<br>
Text #1<br>
ID : 3<br>
Format : UTF-8<br>
Codec ID : S_TEXT/UTF8<br>
Duration : 1 h 35 min<br>
Bit rate : 28 b/s<br>
Frame rate : 0.126 FPS<br>
Count of elements : 725<br>
Stream size : 20.3 KiB (0%)<br>
Language : English<br>
Default : Yes<br>
Forced : No<br>
<br>
Text #2<br>
ID : 4<br>
Format : VobSub<br>
Muxing mode : zlib<br>
Codec ID : S_VOBSUB<br>
Duration : 1 h 43 min<br>
Bit rate : 4 148 b/s<br>
Frame rate : 0.197 FPS<br>
Count of elements : 1221<br>
Stream size : 3.06 MiB (0%)<br>
Language : French<br>
Default : No<br>
Forced : No<br>
<br>
Text #3<br>
ID : 5<br>
Format : VobSub<br>
Muxing mode : zlib<br>
Codec ID : S_VOBSUB<br>
Duration : 1 h 25 min<br>
Bit rate : 733 b/s<br>
Frame rate : 0.026 FPS<br>
Count of elements : 132<br>
Stream size : 461 KiB (0%)<br>
Title : Forced<br>
Language : French<br>
Default : No<br>
Forced : No<br>
<br>
Menu<br>
_00_00_00_000 : en:Chapter 01<br>
_00_09_54_666 : en:Chapter 02<br>
_00_19_12_041 : en:Chapter 03<br>
_00_28_04_250 : en:Chapter 04<br>
_00_35_16_958 : en:Chapter 05<br>
_00_47_35_791 : en:Chapter 06<br>
_00_58_21_875 : en:Chapter 07<br>
_01_06_22_500 : en:Chapter 08<br>
_01_14_35_125 : en:Chapter 09<br>
_01_22_58_458 : en:Chapter 10<br>
_01_31_14_791 : en:Chapter 11<br>
_01_38_39_625 : en:Chapter 12</div>
</div>
<div class="bbCodeBlock bbCodeVfcHH HiddenContent">
<div class="attribution type">Hidden Content:</div>
<blockquote>You must reply before you can see the hidden data contained here.</blockquote>
</div>
<div class="messageTextEndMarker">&nbsp;</div>
</blockquote>
</article>]]></description>
                <author><![CDATA[Cauã]]></author>
                </item>

                </channel></rss>